<svg xmlns="http://www.w3.org/2000/svg" viewBox="0 0 72.49 106.59"><defs><style>.cls-1{fill:#29abe2;}</style></defs><g id="Слой_2" data-name="Слой 2"><g id="Слой_1-2" data-name="Слой 1"><path class="cls-1" d="M24.48,25.47a11.6,11.6,0,0,0-.69-4.36,12.66,12.66,0,0,0-3.29,6.38,12.08,12.08,0,0,0,1.62,8.25c.05-.16,1.22-4.19,2-7.43A12.71,12.71,0,0,0,24.48,25.47Z"/><path class="cls-1" d="M26.4,21.88c-.63-1.37,2-5.5,5.63-6.13,3-.52,6.4,1.42,6.45,2.87.06,1.69-4.47,2.77-6.18,3.18C30.13,22.32,27,23.08,26.4,21.88Z"/><path class="cls-1" d="M20.92,22c.66-1.32-.33-5.38-2.56-6-1.85-.55-4.44,1.3-4.73,2.71-.35,1.65,2.41,2.75,3.45,3.17C18.41,22.39,20.34,23.16,20.92,22Z"/><path class="cls-1" d="M19.21,12.33a10.22,10.22,0,0,1,4.89,5.11A14.35,14.35,0,0,1,34,12.65c3.75-.11,7.84,1.43,10.1,4.22,7,8.66-4.33,27.86-6.69,31.86-4.75,8.06-7.22,8.72-10.3,13.79-4.57,7.52-7.89,20.49.05,44-.83-6.88-1-17.36,4.28-27.48,6-11.46,13.08-10.91,20.79-22,10-14.33,13.68-37.52,3.06-48.95C50.57,3,44.23,1.62,40.47.79,29.3-1.67,18.54,1.92,13.32,7.2c-.46.47-2.7,2.8-2.08,4C12,12.49,15.62,10.79,19.21,12.33Z"/><path class="cls-1" d="M56.32,7.71a38,38,0,0,1,7.6,8c4.28,6,5.7,11.83,6.87,16.77a53.81,53.81,0,0,1,1.7,14A50,50,0,0,1,68.05,66.4a35.62,35.62,0,0,1-6.21,9.87A38.81,38.81,0,0,1,49.65,85c-4.09,1.87-5.27,1.55-9.09,3.8a21.73,21.73,0,0,0-7.13,5.85,18.68,18.68,0,0,0-3.25,11.93,32.25,32.25,0,0,1-.7-14,35,35,0,0,1,5.28-12.89,47.62,47.62,0,0,1,6.17-7.86c5.73-6.18,8.46-6.83,12.24-10.74,5.13-5.33,6.95-11.27,8.34-15.83,1.26-4.11,4.31-14.53.41-26.53A39.6,39.6,0,0,0,56.32,7.71Z"/><path class="cls-1" d="M8.74,34.11c-1.56,5.12-2.85,12.39-.43,20C10,59.54,11.84,59.44,15,66.25c3.52,7.48,3,11.08,6.44,26.15,1.32,5.77,2.57,10.36,3.33,13.08a50.45,50.45,0,0,0-7.33-13.17C14.11,88,12,86.81,8.7,82.12A47.72,47.72,0,0,1,2.94,71c-1.4-3.93-5.68-16-.3-28A30.67,30.67,0,0,1,8.74,34.11Z"/></g></g></svg>